<svg width="1781" height="182" viewBox="0 0 1781 182" fill="none" xmlns="http://www.w3.org/2000/svg">
<path d="M1073.29 151.92V126.409H1084.25C1086.53 126.409 1088.47 126.782 1090.11 127.541C1091.76 128.272 1093.02 129.32 1093.91 130.714C1094.8 132.094 1095.25 133.749 1095.25 135.667C1095.25 137.585 1094.8 139.199 1093.91 140.593C1093.02 141.959 1091.74 142.993 1090.11 143.725C1088.47 144.456 1086.53 144.815 1084.25 144.815H1076.54L1079.14 142.221V151.92H1073.28H1073.29ZM1089.4 151.92L1083.07 142.662H1089.33L1095.74 151.92H1089.42H1089.4ZM1079.16 142.883L1076.55 140.11H1083.94C1085.75 140.11 1087.1 139.723 1087.99 138.937C1088.88 138.137 1089.33 137.047 1089.33 135.653C1089.33 134.26 1088.88 133.156 1087.99 132.37C1087.1 131.597 1085.75 131.197 1083.94 131.197H1076.55L1079.16 128.382V142.855V142.883ZM1105.29 136.688H1117.48V141.282H1105.29V136.688ZM1105.73 147.188H1119.52V151.92H1099.91V126.409H1119.06V131.142H1105.74V147.174L1105.73 147.188ZM1132.51 152.362C1130.48 152.362 1128.54 152.099 1126.69 151.561C1124.82 151.009 1123.33 150.292 1122.19 149.409L1124.18 144.966C1125.26 145.739 1126.55 146.387 1128.02 146.898C1129.51 147.381 1131.02 147.629 1132.54 147.629C1133.7 147.629 1134.62 147.519 1135.32 147.298C1136.04 147.05 1136.58 146.732 1136.91 146.318C1137.25 145.904 1137.41 145.435 1137.41 144.897C1137.41 144.221 1137.15 143.683 1136.62 143.297C1136.08 142.883 1135.39 142.552 1134.52 142.317C1133.66 142.055 1132.69 141.807 1131.63 141.586C1130.59 141.338 1129.55 141.048 1128.48 140.717C1127.44 140.372 1126.5 139.944 1125.62 139.406C1124.76 138.868 1124.04 138.164 1123.48 137.295C1122.95 136.426 1122.69 135.308 1122.69 133.942C1122.69 132.48 1123.07 131.155 1123.85 129.969C1124.65 128.755 1125.82 127.789 1127.4 127.085C1128.99 126.354 1130.99 125.995 1133.37 125.995C1134.96 125.995 1136.54 126.189 1138.07 126.575C1139.62 126.934 1140.97 127.499 1142.17 128.244L1140.36 132.728C1139.18 132.052 1137.99 131.556 1136.81 131.238C1135.63 130.893 1134.47 130.728 1133.33 130.728C1132.19 130.728 1131.26 130.866 1130.55 131.128C1129.82 131.39 1129.3 131.749 1128.99 132.19C1128.67 132.604 1128.52 133.087 1128.52 133.653C1128.52 134.315 1128.78 134.839 1129.32 135.253C1129.85 135.64 1130.55 135.957 1131.41 136.205C1132.28 136.454 1133.24 136.688 1134.28 136.936C1135.33 137.185 1136.39 137.461 1137.43 137.778C1138.5 138.095 1139.45 138.523 1140.32 139.047C1141.18 139.585 1141.88 140.289 1142.41 141.158C1142.97 142.028 1143.25 143.145 1143.25 144.47C1143.25 145.905 1142.85 147.215 1142.06 148.402C1141.26 149.588 1140.07 150.554 1138.48 151.285C1136.91 152.017 1134.92 152.375 1132.51 152.375V152.362ZM1152.66 136.688H1164.85V141.282H1152.66V136.688ZM1153.1 147.188H1166.89V151.92H1147.28V126.409H1166.42V131.142H1153.11V147.174L1153.1 147.188ZM1168.22 151.92L1179.51 126.409H1185.3L1196.63 151.92H1190.48L1181.22 129.389H1183.53L1174.23 151.92H1168.23H1168.22ZM1173.86 146.456L1175.42 141.972H1188.45L1190.04 146.456H1173.86ZM1199.26 151.92V126.409H1210.23C1212.5 126.409 1214.45 126.782 1216.09 127.541C1217.74 128.272 1219 129.32 1219.89 130.714C1220.78 132.094 1221.23 133.749 1221.23 135.667C1221.23 137.585 1220.78 139.199 1219.89 140.593C1219 141.959 1217.72 142.993 1216.09 143.725C1214.45 144.456 1212.5 144.815 1210.23 144.815H1202.52L1205.12 142.221V151.92H1199.26ZM1215.37 151.92L1209.04 142.662H1215.3L1221.71 151.92H1215.38H1215.37ZM1205.12 142.883L1202.52 140.11H1209.9C1211.71 140.11 1213.07 139.723 1213.96 138.937C1214.85 138.137 1215.3 137.047 1215.3 135.653C1215.3 134.26 1214.85 133.156 1213.96 132.37C1213.07 131.597 1211.71 131.197 1209.9 131.197H1202.52L1205.12 128.382V142.855V142.883ZM1238 152.362C1236.04 152.362 1234.21 152.044 1232.53 151.41C1230.87 150.747 1229.42 149.823 1228.19 148.636C1226.95 147.45 1226 146.042 1225.3 144.442C1224.63 142.842 1224.28 141.076 1224.28 139.158C1224.28 137.24 1224.63 135.474 1225.3 133.873C1226 132.273 1226.97 130.88 1228.19 129.679C1229.45 128.493 1230.9 127.582 1232.57 126.947C1234.23 126.285 1236.06 125.968 1238.04 125.968C1240.23 125.968 1242.21 126.354 1243.97 127.141C1245.75 127.899 1247.25 129.017 1248.46 130.493L1244.69 133.998C1243.82 133.004 1242.86 132.259 1241.8 131.776C1240.75 131.266 1239.58 131.017 1238.32 131.017C1237.15 131.017 1236.05 131.211 1235.06 131.597C1234.08 131.983 1233.21 132.549 1232.49 133.28C1231.76 134.011 1231.2 134.867 1230.79 135.874C1230.41 136.867 1230.21 137.971 1230.21 139.185C1230.21 140.4 1230.41 141.503 1230.79 142.497C1231.2 143.49 1231.76 144.359 1232.49 145.09C1233.21 145.822 1234.06 146.374 1235.06 146.774C1236.05 147.16 1237.15 147.353 1238.32 147.353C1239.57 147.353 1240.73 147.105 1241.8 146.622C1242.86 146.111 1243.83 145.353 1244.69 144.332L1248.46 147.836C1247.25 149.312 1245.76 150.444 1243.97 151.23C1242.2 152.003 1240.21 152.403 1238 152.403V152.362ZM1269.79 126.409H1275.65V151.92H1269.79V126.409ZM1258.28 151.92H1252.42V126.409H1258.28V151.92ZM1270.23 141.462H1257.84V136.467H1270.23V141.462ZM1299.85 152.362C1297.99 152.362 1296.35 152.058 1294.9 151.451C1293.44 150.844 1292.31 150.016 1291.46 148.967C1290.61 147.919 1290.2 146.719 1290.2 145.353C1290.2 144.083 1290.47 142.966 1291.03 141.959C1291.58 140.938 1292.47 139.986 1293.68 139.116C1294.88 138.22 1296.42 137.337 1298.28 136.495C1299.63 135.86 1300.69 135.308 1301.46 134.812C1302.22 134.329 1302.77 133.86 1303.09 133.432C1303.4 132.977 1303.55 132.508 1303.55 132.052C1303.55 131.418 1303.33 130.907 1302.9 130.521C1302.48 130.135 1301.87 129.941 1301.05 129.941C1300.18 129.941 1299.5 130.162 1299.02 130.604C1298.54 131.045 1298.29 131.597 1298.29 132.273C1298.29 132.632 1298.36 133.004 1298.51 133.363C1298.65 133.708 1298.94 134.108 1299.35 134.563C1299.76 135.005 1300.33 135.571 1301.09 136.274L1314.44 148.747L1311.36 152.362L1296.64 138.578C1295.79 137.806 1295.11 137.074 1294.61 136.385C1294.1 135.709 1293.73 135.032 1293.48 134.384C1293.27 133.722 1293.16 133.046 1293.16 132.342C1293.16 131.1 1293.48 130.01 1294.13 129.058C1294.79 128.106 1295.7 127.389 1296.88 126.878C1298.06 126.34 1299.46 126.078 1301.05 126.078C1302.51 126.078 1303.79 126.327 1304.84 126.809C1305.92 127.265 1306.77 127.941 1307.37 128.81C1308 129.679 1308.32 130.728 1308.32 131.942C1308.32 133.004 1308.06 133.998 1307.52 134.894C1306.99 135.764 1306.17 136.592 1305.03 137.378C1303.92 138.151 1302.46 138.951 1300.65 139.751C1299.42 140.303 1298.44 140.855 1297.72 141.393C1297.02 141.903 1296.51 142.428 1296.2 142.966C1295.88 143.504 1295.73 144.097 1295.73 144.759C1295.73 145.366 1295.91 145.918 1296.28 146.401C1296.66 146.884 1297.2 147.257 1297.87 147.533C1298.54 147.795 1299.35 147.933 1300.25 147.933C1301.72 147.933 1303.07 147.588 1304.31 146.912C1305.54 146.208 1306.58 145.173 1307.42 143.807C1308.28 142.428 1308.89 140.744 1309.26 138.771L1313.78 140.193C1313.28 142.676 1312.37 144.828 1311.07 146.65C1309.77 148.471 1308.17 149.878 1306.26 150.871C1304.36 151.865 1302.22 152.362 1299.85 152.362ZM1328.47 151.92V126.409H1339.97C1342.73 126.409 1345.15 126.947 1347.25 128.01C1349.34 129.058 1350.99 130.521 1352.17 132.425C1353.34 134.315 1353.95 136.564 1353.95 139.172C1353.95 141.779 1353.36 144.001 1352.17 145.918C1350.99 147.809 1349.34 149.299 1347.25 150.361C1345.15 151.41 1342.73 151.934 1339.97 151.934H1328.47V151.92ZM1334.33 147.077H1339.69C1341.37 147.077 1342.84 146.76 1344.07 146.125C1345.33 145.463 1346.29 144.539 1346.96 143.352C1347.66 142.166 1348.02 140.758 1348.02 139.158C1348.02 137.557 1347.66 136.136 1346.96 134.963C1346.29 133.777 1345.32 132.866 1344.07 132.232C1342.84 131.569 1341.39 131.252 1339.69 131.252H1334.33V147.077ZM1363.77 136.688H1375.96V141.282H1363.77V136.688ZM1364.21 147.188H1378V151.92H1358.38V126.409H1377.53V131.142H1364.22V147.174L1364.21 147.188ZM1389.9 151.92L1378.97 126.409H1385.3L1394.86 149.009H1391.14L1400.83 126.409H1406.66L1395.68 151.92H1389.89H1389.9ZM1414.16 136.688H1426.35V141.282H1414.16V136.688ZM1414.6 147.188H1428.39V151.92H1408.78V126.409H1427.93V131.142H1414.61V147.174L1414.6 147.188ZM1433.05 151.92V126.409H1438.91V147.119H1451.61V151.934H1433.05V151.92ZM1466.77 152.362C1464.77 152.362 1462.91 152.03 1461.2 151.382C1459.51 150.72 1458.04 149.809 1456.79 148.609C1455.56 147.422 1454.6 146.015 1453.9 144.414C1453.23 142.814 1452.88 141.062 1452.88 139.172C1452.88 137.281 1453.23 135.529 1453.9 133.929C1454.6 132.328 1455.57 130.935 1456.83 129.734C1458.09 128.548 1459.56 127.623 1461.24 126.961C1462.93 126.299 1464.76 125.982 1466.75 125.982C1468.73 125.982 1470.58 126.313 1472.25 126.961C1473.94 127.623 1475.4 128.534 1476.64 129.734C1477.9 130.921 1478.87 132.328 1479.57 133.929C1480.27 135.502 1480.62 137.254 1480.62 139.172C1480.62 141.089 1480.27 142.828 1479.57 144.456C1478.87 146.056 1477.9 147.464 1476.64 148.65C1475.4 149.823 1473.95 150.733 1472.25 151.382C1470.6 152.044 1468.76 152.362 1466.79 152.362H1466.77ZM1466.73 147.326C1467.87 147.326 1468.9 147.132 1469.84 146.746C1470.82 146.36 1471.65 145.794 1472.38 145.063C1473.1 144.332 1473.65 143.476 1474.03 142.469C1474.45 141.476 1474.65 140.372 1474.65 139.158C1474.65 137.944 1474.45 136.84 1474.03 135.846C1473.65 134.853 1473.09 133.984 1472.38 133.253C1471.68 132.521 1470.84 131.969 1469.88 131.569C1468.92 131.183 1467.87 130.99 1466.73 130.99C1465.6 130.99 1464.56 131.183 1463.58 131.569C1462.64 131.956 1461.8 132.521 1461.09 133.253C1460.36 133.984 1459.8 134.839 1459.39 135.846C1459.01 136.84 1458.82 137.944 1458.82 139.158C1458.82 140.372 1459.01 141.448 1459.39 142.469C1459.8 143.462 1460.35 144.332 1461.05 145.063C1461.77 145.794 1462.61 146.346 1463.58 146.746C1464.54 147.132 1465.6 147.326 1466.73 147.326ZM1485.01 151.92V126.409H1495.96C1498.24 126.409 1500.18 126.782 1501.83 127.541C1503.47 128.272 1504.73 129.32 1505.63 130.714C1506.53 132.094 1506.98 133.749 1506.98 135.667C1506.98 137.585 1506.53 139.199 1505.63 140.593C1504.74 141.972 1503.47 143.049 1501.83 143.807C1500.18 144.539 1498.24 144.897 1495.96 144.897H1488.25L1490.86 142.234V151.934H1484.99L1485.01 151.92ZM1490.87 142.883L1488.27 140.082H1495.65C1497.46 140.082 1498.81 139.696 1499.7 138.909C1500.59 138.137 1501.05 137.047 1501.05 135.667C1501.05 134.287 1500.59 133.17 1499.7 132.383C1498.81 131.611 1497.46 131.211 1495.65 131.211H1488.27L1490.87 128.396V142.869V142.883ZM1511.16 151.92V126.409H1516L1526.78 144.414H1524.21L1534.81 126.409H1539.62L1539.69 151.92H1534.18L1534.14 134.894H1535.15L1526.69 149.216H1524.04L1515.39 134.894H1516.62V151.92H1511.11H1511.16ZM1551.11 136.688H1563.3V141.282H1551.11V136.688ZM1551.55 147.188H1565.34V151.92H1545.73V126.409H1564.88V131.142H1551.56V147.174L1551.55 147.188ZM1570 151.92V126.409H1574.85L1589.79 144.787H1587.44V126.409H1593.23V151.92H1588.42L1573.44 133.542H1575.79V151.92H1570ZM1604.48 151.92V131.211H1596.37V126.395H1618.45V131.211H1610.34V151.92H1604.48ZM1643.97 152.362C1642.01 152.362 1640.19 152.044 1638.5 151.41C1636.83 150.747 1635.39 149.823 1634.16 148.636C1632.93 147.45 1631.97 146.042 1631.27 144.442C1630.6 142.842 1630.26 141.076 1630.26 139.158C1630.26 137.24 1630.6 135.474 1631.27 133.873C1631.97 132.273 1632.94 130.88 1634.16 129.679C1635.42 128.493 1636.87 127.582 1638.54 126.947C1640.21 126.285 1642.02 125.968 1644.01 125.968C1646.2 125.968 1648.19 126.354 1649.94 127.141C1651.72 127.899 1653.23 129.017 1654.43 130.493L1650.67 133.998C1649.8 133.004 1648.83 132.259 1647.78 131.776C1646.72 131.266 1645.56 131.017 1644.3 131.017C1643.12 131.017 1642.02 131.211 1641.04 131.597C1640.05 131.983 1639.19 132.549 1638.46 133.28C1637.74 134.011 1637.17 134.867 1636.76 135.874C1636.38 136.867 1636.19 137.971 1636.19 139.185C1636.19 140.4 1636.38 141.503 1636.76 142.497C1637.17 143.49 1637.74 144.359 1638.46 145.09C1639.19 145.822 1640.04 146.374 1641.04 146.774C1642.02 147.16 1643.12 147.353 1644.3 147.353C1645.56 147.353 1646.71 147.105 1647.78 146.622C1648.84 146.111 1649.8 145.353 1650.67 144.332L1654.43 147.836C1653.23 149.312 1651.73 150.444 1649.94 151.23C1648.17 152.003 1646.19 152.403 1643.97 152.403V152.362ZM1663.77 136.688H1675.97V141.282H1663.77V136.688ZM1664.21 147.188H1678.01V151.92H1658.39V126.409H1677.54V131.142H1664.23V147.174L1664.21 147.188ZM1682.66 151.92V126.409H1687.51L1702.46 144.787H1700.1V126.409H1705.9V151.92H1701.09L1686.1 133.542H1688.46V151.92H1682.66ZM1717.14 151.92V131.211H1709.03V126.395H1731.11V131.211H1723V151.92H1717.14ZM1739.66 136.688H1751.85V141.282H1739.66V136.688ZM1740.1 147.188H1753.89V151.92H1734.28V126.409H1753.43V131.142H1740.11V147.174L1740.1 147.188ZM1758.55 151.92V126.409H1769.52C1771.8 126.409 1773.74 126.782 1775.38 127.541C1777.03 128.272 1778.29 129.32 1779.18 130.714C1780.07 132.094 1780.52 133.749 1780.52 135.667C1780.52 137.585 1780.07 139.199 1779.18 140.593C1778.29 141.959 1777.01 142.993 1775.38 143.725C1773.74 144.456 1771.8 144.815 1769.52 144.815H1761.81L1764.41 142.221V151.92H1758.55ZM1774.66 151.92L1768.33 142.662H1774.59L1781 151.92H1774.67H1774.66ZM1764.41 142.883L1761.81 140.11H1769.19C1771 140.11 1772.36 139.723 1773.25 138.937C1774.14 138.137 1774.59 137.047 1774.59 135.653C1774.59 134.26 1774.14 133.156 1773.25 132.37C1772.36 131.597 1771 131.197 1769.19 131.197H1761.81L1764.41 128.382V142.855V142.883Z" fill="black"/>
<path d="M1083.39 53.6047C1085.73 53.6047 1087.42 54.3861 1088.34 56.0928L1113.95 95.6773L1139.56 56.0928C1140.55 54.3861 1142.25 53.6047 1144.51 53.6047H1149.61C1153.86 53.6047 1156.04 55.5987 1156.04 59.7306V105.648H1145.5V66.6379L1121.52 103.159C1120.53 104.794 1118.98 105.648 1117.07 105.648H1110.91C1108.93 105.648 1107.44 104.794 1106.38 103.159L1082.47 66.7097V105.656H1071.93V59.7395C1071.93 55.6077 1074.05 53.6137 1078.29 53.6137H1083.39V53.6047ZM1178.47 53.6047V105.648H1166.65V53.6047H1178.47ZM1200.64 67.563V91.6982C1200.64 95.1114 1202.48 96.7551 1206.08 96.7551H1247.89V105.656H1201.41C1193.07 105.656 1188.82 101.884 1188.82 94.4108V64.8684C1188.82 57.3952 1193.07 53.6226 1201.41 53.6226H1247.89V62.524H1206.08C1202.48 62.524 1200.64 64.2306 1200.64 67.581V67.563ZM1257.09 105.648V53.6047H1305.91C1315.24 53.6047 1319.84 57.8083 1319.84 66.2786V73.2577C1319.84 81.3776 1315.59 85.5723 1307.1 85.9316L1322.39 105.153V105.648H1309.3L1293.81 85.9316H1268.9V105.648H1257.08H1257.09ZM1308.18 72.5391V68.057C1308.18 64.2127 1306.19 62.2905 1302.16 62.2905H1268.91V78.3057H1302.16C1306.19 78.3057 1308.18 76.3835 1308.18 72.5391ZM1374.15 62.4971H1346.77C1342.74 62.4971 1340.75 64.3474 1340.75 68.1918V91.0425C1340.75 94.815 1342.74 96.7372 1346.77 96.7372H1374.15C1378.18 96.7372 1380.16 94.8868 1380.16 91.0425V68.1918C1380.16 64.3474 1378.18 62.4971 1374.15 62.4971ZM1378.04 105.639H1342.88C1333.54 105.639 1328.94 101.435 1328.94 92.9647V66.2696C1328.94 57.7994 1333.53 53.5957 1342.88 53.5957H1378.04C1387.37 53.5957 1391.97 57.7994 1391.97 66.2696V92.9647C1391.97 101.435 1387.37 105.639 1378.04 105.639ZM1424.71 81.9974V75.1619H1455.27V81.9974H1424.71ZM1544.73 53.5957H1555.2V99.5127C1555.2 103.644 1553.07 105.639 1548.83 105.639H1542.96C1540.62 105.639 1538.71 104.857 1537.37 103.15L1498.74 62.9282V105.648H1488.2V59.7306C1488.2 55.5987 1490.32 53.6047 1494.56 53.6047H1500.44C1502.77 53.6047 1504.69 54.3861 1506.02 56.0928L1544.73 96.4587V53.6047V53.5957ZM1578.24 53.5957H1616.37C1624.72 53.5957 1628.97 57.3682 1628.97 64.8414V105.639H1617.15V88.0514H1577.53V105.639H1565.71V64.8414C1565.71 57.3682 1569.89 53.5957 1578.23 53.5957H1578.24ZM1577.54 67.554V80.5153H1617.16V67.554C1617.16 64.2037 1615.32 62.4971 1611.72 62.4971H1582.92C1579.39 62.4971 1577.55 64.2037 1577.55 67.554H1577.54ZM1695.9 53.5957H1706.37V99.5127C1706.37 103.644 1704.25 105.639 1700.01 105.639H1694.14C1691.8 105.639 1689.89 104.857 1688.55 103.15L1649.92 62.9282V105.648H1639.38V59.7306C1639.38 55.5987 1641.5 53.6047 1645.74 53.6047H1651.61C1653.95 53.6047 1655.86 54.3861 1657.2 56.0928L1695.9 96.4587V53.6047V53.5957ZM1761.82 62.4971H1734.44C1730.41 62.4971 1728.43 64.3474 1728.43 68.1918V91.0425C1728.43 94.815 1730.41 96.7372 1734.44 96.7372H1761.82C1765.85 96.7372 1767.84 94.8868 1767.84 91.0425V68.1918C1767.84 64.3474 1765.85 62.4971 1761.82 62.4971ZM1765.71 105.639H1730.55C1721.22 105.639 1716.61 101.435 1716.61 92.9647V66.2696C1716.61 57.7994 1721.21 53.5957 1730.55 53.5957H1765.71C1775.05 53.5957 1779.65 57.7994 1779.65 66.2696V92.9647C1779.65 101.435 1775.05 105.639 1765.71 105.639Z" fill="black"/>
<path d="M949.675 108.756C957.375 108.756 963.617 102.373 963.617 94.4982C963.617 86.6237 957.375 80.2402 949.675 80.2402C941.976 80.2402 935.734 86.6237 935.734 94.4982C935.734 102.373 941.976 108.756 949.675 108.756Z" stroke="black" stroke-width="3.3"/>
<path d="M1010.46 71.7351C1018.34 71.7351 1024.72 65.3516 1024.72 57.4772C1024.72 49.6027 1018.34 43.2192 1010.46 43.2192C1002.59 43.2192 996.203 49.6027 996.203 57.4772C996.203 65.3516 1002.59 71.7351 1010.46 71.7351Z" stroke="black" stroke-width="3.3"/>
<path d="M885.941 70.7351C893.641 70.7351 899.882 64.3516 899.882 56.4772C899.882 48.6027 893.641 42.2192 885.941 42.2192C878.242 42.2192 872 48.6027 872 56.4772C872 64.3516 878.242 70.7351 885.941 70.7351Z" stroke="black" stroke-width="3.3"/>
<path d="M948.675 36.8822C956.375 36.8822 962.617 30.6405 962.617 22.9411C962.617 15.2416 956.375 9 948.675 9C940.976 9 934.734 15.2416 934.734 22.9411C934.734 30.6405 940.976 36.8822 948.675 36.8822Z" stroke="black" stroke-width="3.3"/>
<path d="M948.675 177.461C956.375 177.461 962.617 171.078 962.617 163.203C962.617 155.329 956.375 148.946 948.675 148.946C940.976 148.946 934.734 155.329 934.734 163.203C934.734 171.078 940.976 177.461 948.675 177.461Z" stroke="black" stroke-width="3.3"/>
<path d="M885.941 141.341C893.641 141.341 899.882 134.958 899.882 127.083C899.882 119.209 893.641 112.825 885.941 112.825C878.242 112.825 872 119.209 872 127.083C872 134.958 878.242 141.341 885.941 141.341Z" stroke="black" stroke-width="3.3"/>
<path d="M1010.46 141.341C1018.34 141.341 1024.72 134.958 1024.72 127.083C1024.72 119.209 1018.34 112.825 1010.46 112.825C1002.59 112.825 996.203 119.209 996.203 127.083C996.203 134.958 1002.59 141.341 1010.46 141.341Z" stroke="black" stroke-width="3.3"/>
<path fill-rule="evenodd" clip-rule="evenodd" d="M973.276 31.1985L987.026 39.1346C996.054 43.625 1005.57 47.0929 1015.13 50.2643C1017.23 51.1832 1018.7 53.2802 1018.7 55.7107C1018.7 56.2887 1018.62 56.8444 1018.46 57.3779C1012.98 85.7804 1013.1 100.245 1018.28 127.951C1018.55 128.625 1018.7 129.366 1018.7 130.136C1018.7 132.589 1017.21 134.701 1015.09 135.605C986.974 145.149 974.418 152.337 951.862 171.632C950.869 172.373 949.638 172.818 948.304 172.818C946.703 172.818 945.25 172.188 944.183 171.158C921.82 152.1 909.263 144.912 881.275 135.442C879.34 134.464 878.021 132.456 878.021 130.136C878.021 130.018 878.02 129.899 878.028 129.781C883.683 100.623 883.824 86.1805 878.161 57.0222C878.065 56.5999 878.021 56.1627 878.021 55.7181C878.021 53.3173 879.451 51.2425 881.504 50.3088C893.512 46.3297 902.659 42.7062 910.983 38.438L921.983 32.0951C929.114 27.5009 936.4 22.1361 945.035 14.8224C945.999 14.1555 947.163 13.7628 948.423 13.7628C949.609 13.7628 950.72 14.1111 951.647 14.7113C959.734 21.5655 966.59 26.7896 973.284 31.2133L973.276 31.1985ZM952.922 158.917C943.968 107.166 958.726 82.1791 1008.2 64.8546C1017.11 116.102 1001.85 141.37 952.922 158.917ZM893.082 55.7996C933.457 22.9734 963.61 23.2402 1003.9 56.096C995.995 62.6094 989.235 67.6037 982.334 71.8051L977.257 74.7395C948.304 96.5 921.983 79 893.09 55.807L893.082 55.7996ZM888.539 63.8394C937.393 81.8975 952.922 96 943.716 158.798C894.261 141.155 879.518 115.494 888.539 63.8394Z" fill="black"/>
<g clip-path="url(#clip0_103_172)">
<path fill-rule="evenodd" clip-rule="evenodd" d="M71.4782 14.503H105.1C112.406 14.503 117.885 16.2409 121.538 19.7166C125.191 23.1923 127.017 28.1576 127.017 34.6126C127.017 41.0675 125.025 46.3638 121.04 50.0878C117.055 53.8118 110.995 55.6324 102.859 55.6324H91.7346V79.797H71.3952V14.503H71.4782ZM146.194 47.8534L128.843 46.0328C129.508 42.9709 130.421 40.571 131.666 38.9158C132.911 37.178 134.655 35.6884 136.979 34.3643C138.64 33.454 140.964 32.7092 143.87 32.2127C146.775 31.7161 149.93 31.4679 153.334 31.4679C158.73 31.4679 163.13 31.7989 166.451 32.3782C169.771 32.9575 172.511 34.2815 174.669 36.1849C176.247 37.509 177.409 39.4124 178.322 41.895C179.235 44.3777 179.65 46.6949 179.65 48.9293V69.8664C179.65 72.1008 179.816 73.8386 180.065 75.08C180.314 76.3213 180.979 77.9764 181.892 79.8798H164.873C164.209 78.6385 163.711 77.7281 163.545 77.1489C163.379 76.4868 163.13 75.4937 162.881 74.1697C160.473 76.4868 158.149 78.0592 155.824 79.0522C152.587 80.3763 148.851 81.0384 144.617 81.0384C138.972 81.0384 134.655 79.7143 131.749 77.0661C128.843 74.4179 127.349 71.1905 127.349 67.3837C127.349 63.8252 128.428 60.846 130.504 58.5289C132.579 56.2117 136.481 54.4739 142.209 53.3153C149.017 51.9084 153.417 50.9981 155.492 50.4189C157.485 49.8396 159.643 49.1775 161.968 48.2672C161.968 46.0328 161.469 44.4605 160.556 43.5502C159.643 42.6398 158.066 42.2261 155.741 42.2261C152.753 42.2261 150.511 42.7226 149.017 43.6329C147.855 44.3777 146.858 45.7845 146.194 47.8534ZM161.968 57.2876C159.477 58.1979 156.82 58.9427 154.164 59.6875C150.511 60.6805 148.104 61.6736 147.19 62.5839C146.194 63.577 145.696 64.7355 145.696 65.9769C145.696 67.3837 146.194 68.625 147.19 69.5354C148.187 70.4457 149.681 70.9422 151.59 70.9422C153.5 70.9422 155.492 70.4457 157.236 69.4526C158.979 68.4595 160.224 67.301 160.971 65.8114C161.718 64.4045 162.051 62.5011 162.051 60.2667L161.968 57.2876ZM185.462 32.4609H202.48V40.2399C204.141 36.847 205.801 34.6126 207.544 33.2885C209.288 32.0471 211.446 31.3851 214.02 31.3851C216.593 31.3851 219.665 32.2127 222.82 33.8678L217.174 46.6949C215.016 45.7845 213.356 45.3708 212.11 45.3708C209.703 45.3708 207.876 46.3638 206.548 48.35C204.639 51.0809 203.725 56.2945 203.725 63.908V79.797H185.462V32.4609ZM273.46 79.797H256.442V72.1835C253.868 75.3282 251.378 77.5626 248.804 78.8867C246.231 80.2108 243.076 80.8728 239.34 80.8728C234.359 80.8728 230.457 79.3832 227.635 76.4041C224.812 73.4249 223.401 68.7906 223.401 62.5839V32.4609H241.665V58.5289C241.665 61.5081 242.246 63.577 243.325 64.9011C244.404 66.1424 245.981 66.8044 247.974 66.8044C250.132 66.8044 251.876 65.9769 253.287 64.3218C254.698 62.6667 255.362 59.6875 255.362 55.3842V32.5437H273.543V79.797H273.46ZM279.853 14.503H298.034V79.797H279.853V14.503ZM323.354 6.55847C326.177 6.55847 328.916 7.30327 331.656 8.71011C334.312 10.117 336.471 12.1858 337.965 14.9168C339.459 17.6477 340.207 20.4614 340.207 23.3578C340.207 26.2543 339.459 29.068 337.965 31.7161C336.471 34.3643 334.395 36.4332 331.739 37.9228C329.082 39.4124 326.26 40.1572 323.354 40.1572C320.448 40.1572 317.626 39.4124 314.969 37.9228C312.313 36.4332 310.237 34.3643 308.743 31.7161C307.249 29.068 306.501 26.2543 306.501 23.3578C306.501 20.4614 307.249 17.6477 308.743 14.9168C310.237 12.2686 312.396 10.117 315.052 8.71011C317.792 7.22052 320.531 6.55847 323.354 6.55847ZM323.354 9.2894C321.029 9.2894 318.705 9.86869 316.464 11.11C314.222 12.3514 312.479 14.0892 311.233 16.3236C309.988 18.558 309.324 20.8752 309.324 23.3578C309.324 25.8405 309.988 28.0749 311.15 30.3093C312.396 32.5437 314.139 34.2815 316.38 35.5229C318.622 36.7642 320.946 37.3435 323.354 37.3435C325.761 37.3435 328.086 36.6814 330.327 35.5229C332.569 34.2815 334.312 32.5437 335.558 30.3093C336.803 28.0749 337.384 25.7577 337.384 23.3578C337.384 20.9579 336.72 18.558 335.475 16.3236C334.229 14.0892 332.486 12.3514 330.244 11.11C328.003 9.95144 325.761 9.2894 323.354 9.2894ZM315.965 32.6264H318.871V25.0129H320.614C321.611 25.0129 322.441 25.1784 322.939 25.5922C323.686 26.1715 324.765 27.5784 326.011 29.8128L327.671 32.6264H331.241L328.999 29.068C327.92 27.4128 327.09 26.1715 326.343 25.5095C325.928 25.0957 325.429 24.8474 324.765 24.5164C326.343 24.4336 327.588 23.8544 328.501 22.8613C329.497 21.8682 329.912 20.7097 329.912 19.3856C329.912 18.4753 329.663 17.5649 329.082 16.7374C328.501 15.9098 327.754 15.3305 326.758 14.9995C325.761 14.6685 324.267 14.503 322.109 14.503H315.882L315.965 32.6264ZM318.871 22.4475H322.441C324.101 22.4475 325.263 22.1992 325.928 21.7027C326.509 21.2062 326.841 20.5441 326.841 19.7166C326.841 19.2201 326.675 18.7235 326.426 18.3097C326.094 17.896 325.678 17.5649 325.18 17.3994C324.599 17.2339 323.686 17.0684 322.192 17.0684H318.871V22.4475ZM39.9315 99.5756H48.0673V134.829C48.0673 140.953 47.4031 145.836 45.9918 149.394C44.5805 153.036 42.09 155.932 38.4372 158.166C34.7844 160.401 30.0524 161.559 24.1582 161.559C18.2639 161.559 13.7809 160.566 10.1282 158.58C6.47538 156.594 3.90183 153.78 2.3245 150.056C0.747159 146.332 0 141.284 0 134.747V99.4928H8.05272V134.664C8.05272 139.96 8.55082 143.85 9.54704 146.332C10.5432 148.815 12.2036 150.801 14.6111 152.125C17.0186 153.449 19.9243 154.194 23.411 154.194C29.3883 154.194 33.6222 152.87 36.1127 150.139C38.6032 147.491 39.9315 142.277 39.9315 134.664V99.5756ZM60.769 160.566V116.375H67.4934V122.664C70.7311 117.782 75.4631 115.382 81.6064 115.382C84.263 115.382 86.7535 115.878 88.995 116.789C91.2365 117.782 92.8968 119.023 94.0591 120.595C95.2213 122.168 95.9685 123.988 96.3836 126.14C96.6326 127.547 96.7986 129.947 96.7986 133.423V160.566H89.3271V133.671C89.3271 130.609 89.078 128.374 88.4969 126.802C87.9158 125.313 86.8365 124.071 85.4252 123.161C83.9309 122.251 82.1875 121.837 80.1951 121.837C76.9574 121.837 74.2178 122.83 71.8933 124.899C69.5688 126.885 68.4066 130.774 68.4066 136.402V160.484L60.769 160.566ZM108.504 99.5756H116.059V108.182H108.504V99.5756ZM108.504 116.375H116.059V160.566H108.504V116.375ZM140.051 160.566L123.198 116.375H131.085L140.632 142.774C141.628 145.588 142.624 148.567 143.455 151.711C144.119 149.394 145.032 146.581 146.277 143.353L156.156 116.375H163.877L147.107 160.566H140.051ZM200.986 146.332L208.707 147.243C207.461 151.794 205.22 155.27 201.899 157.753C198.578 160.235 194.344 161.477 189.197 161.477C182.722 161.477 177.575 159.491 173.839 155.518C170.02 151.546 168.111 146.001 168.111 138.802C168.111 131.602 170.02 125.644 173.839 121.506C177.658 117.368 182.639 115.382 188.782 115.382C194.926 115.382 199.575 117.368 203.31 121.423C207.046 125.478 208.956 131.105 208.956 138.388C208.956 138.884 208.956 139.546 208.873 140.374H175.832C176.081 145.257 177.492 148.981 179.982 151.546C182.473 154.111 185.545 155.435 189.197 155.435C191.937 155.435 194.261 154.691 196.254 153.284C198.329 151.794 199.907 149.477 200.986 146.332ZM176.413 134.25H201.152C200.82 130.526 199.907 127.712 198.329 125.892C195.922 122.995 192.85 121.589 189.031 121.589C185.628 121.589 182.722 122.747 180.314 125.064C177.907 127.299 176.662 130.361 176.413 134.25ZM218.42 160.566V116.375H225.144V123.078C226.887 119.933 228.465 117.865 229.959 116.871C231.453 115.878 233.031 115.382 234.774 115.382C237.265 115.382 239.838 116.209 242.495 117.782L239.921 124.733C238.095 123.657 236.268 123.078 234.442 123.078C232.782 123.078 231.287 123.575 230.042 124.568C228.714 125.561 227.801 126.968 227.219 128.705C226.389 131.354 225.974 134.25 225.974 137.478V160.566H218.42ZM244.155 147.408L251.544 146.25C251.959 149.229 253.121 151.463 255.03 153.036C256.94 154.608 259.596 155.435 263 155.435C266.404 155.435 268.977 154.691 270.638 153.367C272.298 151.96 273.128 150.305 273.128 148.484C273.128 146.663 272.381 145.505 270.887 144.512C269.891 143.85 267.317 143.022 263.249 141.946C257.77 140.54 253.951 139.381 251.793 138.305C249.717 137.312 248.057 135.905 246.978 134.085C245.898 132.264 245.317 130.361 245.317 128.209C245.317 126.223 245.815 124.402 246.729 122.747C247.642 121.092 248.887 119.685 250.381 118.527C251.544 117.699 253.121 116.954 255.196 116.375C257.189 115.796 259.347 115.465 261.672 115.465C265.159 115.465 268.147 115.961 270.804 116.954C273.46 117.947 275.37 119.271 276.615 121.009C277.86 122.747 278.69 124.981 279.189 127.878L271.883 128.871C271.551 126.554 270.555 124.816 268.977 123.575C267.4 122.251 265.076 121.671 262.17 121.671C258.683 121.671 256.276 122.251 254.781 123.409C253.287 124.568 252.54 125.892 252.54 127.381C252.54 128.374 252.872 129.202 253.453 130.03C254.034 130.857 255.03 131.519 256.359 132.016C257.106 132.264 259.347 132.926 263 133.919C268.313 135.326 272.049 136.484 274.124 137.395C276.2 138.305 277.86 139.629 279.106 141.367C280.268 143.105 280.932 145.174 280.932 147.739C280.932 150.305 280.185 152.622 278.773 154.773C277.279 157.008 275.204 158.663 272.464 159.904C269.725 161.146 266.57 161.725 263.166 161.725C257.438 161.725 253.038 160.566 249.966 158.166C246.895 155.601 244.985 152.043 244.155 147.408ZM290.147 99.5756H297.618V108.182H290.147V99.5756ZM290.147 116.375H297.618V160.566H290.147V116.375ZM325.761 153.863L326.841 160.484C324.765 160.897 322.856 161.146 321.196 161.146C318.456 161.146 316.38 160.732 314.886 159.822C313.392 158.994 312.313 157.835 311.731 156.429C311.15 155.022 310.818 152.125 310.818 147.574V122.168H305.339V116.375H310.818V105.451L318.29 100.982V116.375H325.844V122.168H318.29V147.988C318.29 150.139 318.373 151.463 318.705 152.125C318.954 152.705 319.369 153.201 320.033 153.615C320.614 153.946 321.528 154.111 322.607 154.111C323.271 154.111 324.35 154.029 325.761 153.863ZM332.984 177.531L332.154 170.497C333.814 170.911 335.225 171.159 336.471 171.159C338.131 171.159 339.459 170.911 340.456 170.331C341.452 169.752 342.282 169.007 342.946 168.014C343.444 167.27 344.191 165.449 345.271 162.47C345.437 162.056 345.686 161.477 345.935 160.649L329.165 116.375H337.218L346.433 141.946C347.595 145.174 348.674 148.567 349.671 152.208C350.501 148.815 351.58 145.422 352.742 142.112L362.206 116.375H369.678L352.825 161.311C350.999 166.194 349.588 169.504 348.591 171.325C347.263 173.807 345.769 175.628 344.025 176.786C342.282 177.945 340.207 178.524 337.882 178.524C336.388 178.524 334.81 178.193 332.984 177.531ZM91.8176 42.4743H96.7986C100.7 42.4743 103.523 41.8123 105.1 40.4054C106.678 39.0814 107.508 37.3435 107.508 35.1919C107.508 33.0402 106.844 31.3851 105.432 29.9783C104.021 28.5714 101.448 27.8266 97.6288 27.8266H91.8176V42.4743Z" fill="black"/>
<path fill-rule="evenodd" clip-rule="evenodd" d="M677.341 99.079L683.153 84.1003L688.881 99.079H677.341ZM697.017 120.099H716.692L693.032 58.6116H673.357L649.697 120.099H669.372L672.526 111.906H693.945L697.017 120.099ZM681.575 42.0605C706.149 42.0605 726.571 59.5219 731.22 82.6107H719.764V98.0032H731.967C729.228 123.326 707.726 143.022 681.658 143.022C653.681 143.022 631.018 120.43 631.018 92.5414C631.018 64.6528 653.598 42.0605 681.575 42.0605Z" fill="black"/>
<path d="M765.506 84.9278H749.484V68.625H738.193V84.9278H722.088V95.6033H738.193V111.906H749.484V95.6033H765.506V84.9278Z" fill="black"/>
<path d="M811 84.9278H795.061V68.625H783.687V84.9278H767.665V95.6033H783.687V111.906H795.061V95.6033H811V84.9278Z" fill="black"/>
<path d="M598.475 92.0448C606.278 92.0448 613.335 88.7346 618.15 83.4382L608.105 74.6662C605.78 77.6454 602.294 79.5487 598.392 79.5487C591.75 79.5487 586.105 73.7559 586.105 66.8872C586.105 60.0185 591.75 54.3083 598.392 54.3083C602.21 54.3083 605.697 56.2945 608.022 59.1909L618.15 50.4188C613.252 45.2052 606.195 41.895 598.475 41.895C584.113 41.895 572.075 53.3153 572.075 66.8872C572.075 80.459 584.113 92.0448 598.475 92.0448ZM538.619 74.6662L543.185 62.9149L547.668 74.6662H538.619ZM554.143 91.2173H569.585L550.906 42.8881H535.464L516.785 91.2173H532.227L534.717 84.7623H551.57L554.143 91.2173ZM485.737 74.6662L490.303 62.9149L494.786 74.6662H485.737ZM501.261 91.2173H516.702L498.023 42.8881H482.582L463.903 91.2173H479.344L481.835 84.7623H498.687L501.261 91.2173ZM413.345 91.2173H427.043V65.3148L445.971 91.2173H459.669V42.8881H445.971V68.7905L427.043 42.8881H413.345V91.2173Z" fill="black"/>
<path d="M618.15 105.865V101.479H588.762V142.277H618.15V137.891H593.411V123.657H615.659V119.271H593.411V105.865H618.15ZM548.83 138.057V105.699H558.045C568.339 105.699 575.562 112.403 575.562 121.837C575.562 131.271 568.339 138.057 558.045 138.057H548.83ZM544.098 142.277H557.962C570.996 142.277 580.128 133.754 580.128 121.837C580.128 109.92 570.913 101.479 557.962 101.479H544.098V142.277ZM506.491 128.623L516.038 107.189L525.502 128.623H506.491ZM531.562 142.277H536.627L518.529 101.479H513.465L495.367 142.277H500.431L504.582 133.009H527.412L531.562 142.277ZM464.069 105.865H475.193C481.835 105.865 486.401 109.092 486.401 114.554C486.401 120.016 481.835 123.244 475.193 123.244H464.069V105.865ZM491.133 114.554C491.133 106.858 484.491 101.479 476.024 101.479H459.337V142.277H463.986V127.63H474.861L485.239 142.277H490.552L479.925 127.216C486.484 125.809 491.133 120.926 491.133 114.554ZM433.851 125.147H445.639V134.912C442.567 137.229 438.168 138.719 434.349 138.719C425.549 138.719 418.077 131.023 418.077 121.837C418.077 112.651 425.549 105.037 434.349 105.037C438.832 105.037 444.145 107.024 447.133 110.251L450.288 107.024C446.469 103.134 439.994 100.817 434.349 100.817C422.975 100.817 413.345 110.417 413.345 121.92C413.345 133.423 422.975 143.105 434.349 143.105C439.994 143.105 446.469 140.705 450.288 136.898V120.926H433.851V125.147Z" fill="black"/>
<path d="M391.013 3H389.602V182H391.013V3Z" fill="black"/>
</g>
<path d="M842.411 0H841V179H842.411V0Z" fill="black"/>
<defs>
<clipPath id="clip0_103_172">
<rect width="811" height="179" fill="white" transform="translate(0 3)"/>
</clipPath>
</defs>
</svg>
