<svg width="409" height="91" viewBox="0 0 409 91" fill="none" xmlns="http://www.w3.org/2000/svg">
<path fill-rule="evenodd" clip-rule="evenodd" d="M46.2204 20.1605H48.7272C50.7048 20.1605 52.0928 19.8153 52.8912 19.1301C53.6876 18.4463 54.0863 17.5709 54.0863 16.5017C54.0863 15.4648 53.742 14.5873 53.0443 13.8654C52.3541 13.1429 51.0505 12.782 49.1333 12.782H46.2204V20.1605ZM167.565 88.5336L167.142 84.9787C167.973 85.2024 168.688 85.3161 169.305 85.3161C170.141 85.3161 170.816 85.1718 171.315 84.8927C171.824 84.6129 172.233 84.2244 172.554 83.715C172.798 83.3426 173.177 82.3996 173.707 80.8998C173.778 80.6834 173.893 80.3824 174.042 79.9728L165.595 57.5869H169.661L174.302 70.5222C174.895 72.1661 175.439 73.8899 175.912 75.7001C176.348 73.9613 176.865 72.2665 177.467 70.6079L182.227 57.5869H186L177.529 80.3095C176.62 82.7676 175.912 84.4547 175.411 85.3817C174.736 86.6308 173.973 87.5432 173.105 88.1248C172.233 88.7063 171.2 89 169.998 89C169.268 89 168.46 88.8419 167.565 88.5336ZM163.908 76.5389L164.452 79.8861C163.394 80.1098 162.442 80.225 161.603 80.225C160.23 80.225 159.169 80.01 158.411 79.5713C157.659 79.1406 157.13 78.5656 156.821 77.8543C156.514 77.1511 156.355 75.6571 156.355 73.387V60.5321H153.585V57.5869H156.355V52.0492L160.115 49.7807V57.5869H163.908V60.5321H160.115V73.5962C160.115 74.6806 160.178 75.3692 160.307 75.6782C160.445 75.988 160.658 76.2321 160.96 76.4172C161.26 76.5987 161.689 76.6912 162.248 76.6912C162.671 76.6912 163.22 76.6402 163.908 76.5389ZM146.007 57.5869H149.787V79.9313H146.007V57.5869ZM146.007 49.0836H149.787V53.4441H146.007V49.0836ZM122.87 73.2587L126.601 72.6691C126.808 74.1697 127.395 75.3204 128.354 76.1235C129.308 76.9215 130.647 77.3238 132.371 77.3238C134.104 77.3238 135.394 76.9645 136.23 76.2591C137.068 75.5507 137.491 74.7155 137.491 73.7682C137.491 72.9073 137.118 72.2379 136.374 71.7428C135.857 71.4055 134.569 70.9822 132.514 70.4641C129.751 69.7594 127.826 69.1571 126.758 68.6397C125.692 68.1299 124.876 67.4188 124.325 66.5143C123.773 65.6098 123.493 64.6114 123.493 63.52C123.493 62.5212 123.722 61.6005 124.182 60.7538C124.632 59.8992 125.255 59.1964 126.034 58.6356C126.622 58.204 127.425 57.8319 128.434 57.5295C129.45 57.2278 130.538 57.0778 131.698 57.0778C133.444 57.0778 134.978 57.3365 136.302 57.8381C137.626 58.3418 138.6 59.0238 139.229 59.8849C139.861 60.7538 140.29 61.903 140.525 63.3471L136.839 63.8569C136.667 62.7063 136.181 61.8104 135.379 61.1646C134.576 60.5174 133.438 60.1952 131.97 60.1952C130.237 60.1952 128.999 60.4811 128.262 61.0559C127.519 61.6303 127.145 62.3055 127.145 63.0744C127.145 63.5695 127.303 64.0072 127.61 64.4019C127.918 64.8126 128.398 65.142 129.056 65.415C129.437 65.5521 130.546 65.8754 132.393 66.3769C135.064 67.0959 136.925 67.6774 137.977 68.1377C139.036 68.5899 139.867 69.2575 140.469 70.1268C141.07 70.9943 141.371 72.0732 141.371 73.3659C141.371 74.6295 140.998 75.8152 140.268 76.9353C139.531 78.0489 138.471 78.9103 137.089 79.5203C135.708 80.131 134.14 80.4334 132.393 80.4334C129.494 80.4334 127.289 79.8293 125.77 78.6224C124.253 77.4163 123.286 75.628 122.87 73.2587ZM109.901 79.9291V57.5869H113.294V60.9702C114.161 59.3894 114.962 58.3418 115.7 57.8381C116.43 57.3365 117.24 57.0778 118.119 57.0778C119.394 57.0778 120.684 57.4864 122 58.2983L120.698 61.8165C119.782 61.264 118.857 60.9924 117.933 60.9924C117.102 60.9924 116.366 61.2414 115.707 61.7387C115.048 62.2417 114.583 62.9305 114.305 63.8138C113.883 65.1578 113.673 66.6291 113.673 68.2304V79.9291H109.901ZM88.771 66.6073H101.207C101.041 64.7327 100.561 63.3187 99.7809 62.3841C98.5773 60.9268 97.0175 60.1952 95.1067 60.1952C93.3725 60.1952 91.9138 60.7768 90.7327 61.9399C89.5501 63.1027 88.8982 64.6609 88.771 66.6073ZM101.163 72.7348L105.065 73.2157C104.449 75.5055 103.31 77.2801 101.65 78.5445C99.9815 79.8008 97.8563 80.4334 95.2717 80.4334C92.0141 80.4334 89.4288 79.4277 87.5245 77.4163C85.6122 75.4064 84.6615 72.5834 84.6615 68.9494C84.6615 65.1847 85.6268 62.2689 87.5536 60.1952C89.4862 58.1193 91.985 57.0778 95.0638 57.0778C98.0423 57.0778 100.475 58.0971 102.359 60.1295C104.249 62.1617 105.194 65.0269 105.194 68.7115C105.194 68.9414 105.186 69.2801 105.172 69.7243H88.5624C88.699 72.1805 89.3939 74.0626 90.6382 75.3634C91.8847 76.6701 93.4306 77.3238 95.292 77.3238C96.673 77.3238 97.8555 76.9579 98.8375 76.2241C99.8172 75.499 100.59 74.3359 101.163 72.7348ZM70.4959 79.9291L62.0185 57.5869H66.007L70.7889 70.9674C71.3038 72.4105 71.7773 73.9124 72.2134 75.4698C72.5502 74.2921 73.0157 72.8769 73.6175 71.2183L78.5715 57.5869H82.452L74.018 79.9291H70.4959ZM54.6481 57.5869H58.4277V79.9313H54.6481V57.5869ZM54.6481 49.0836H58.4277V53.4441H54.6481V49.0836ZM30.6112 79.9291V57.5869H34.0032V60.7607C35.6428 58.3045 38.0062 57.0778 41.0917 57.0778C42.4378 57.0778 43.668 57.3221 44.7933 57.8029C45.9248 58.2922 46.7617 58.9233 47.3192 59.7123C47.8863 60.4951 48.2721 61.4301 48.5014 62.5064C48.6367 63.21 48.7093 64.4392 48.7093 66.1918V79.9291H44.9286V66.3353C44.9286 64.7969 44.7855 63.6416 44.492 62.8727C44.1986 62.1121 43.6763 61.5015 42.9319 61.0484C42.1798 60.5899 41.3068 60.3595 40.2959 60.3595C38.6864 60.3595 37.3052 60.8758 36.1287 61.8965C34.9626 62.9237 34.3825 64.8622 34.3825 67.727V79.9291H30.6112ZM20.1105 49.0836H24.1858V66.9086C24.1858 70.0038 23.8355 72.4683 23.132 74.2921C22.4314 76.1177 21.1704 77.5949 19.3438 78.7376C17.5196 79.8861 15.1279 80.4553 12.1637 80.4553C9.28543 80.4553 6.9242 79.9583 5.09789 78.9598C3.26513 77.9695 1.95549 76.5251 1.17472 74.6376C0.387522 72.7469 0 70.1767 0 66.9086V49.0836H4.06664V66.8886C4.06664 69.5661 4.31671 71.5425 4.81086 72.8051C5.30501 74.0771 6.16413 75.0537 7.3664 75.7438C8.57656 76.4318 10.0601 76.7772 11.8066 76.7772C14.7994 76.7772 16.9314 76.0951 18.2063 74.7301C19.4751 73.3724 20.1105 70.7579 20.1105 66.8886V49.0836ZM160.46 10.0477H162.245C163.099 10.0477 163.683 9.92137 163.994 9.66776C164.304 9.41371 164.462 9.07506 164.462 8.66068C164.462 8.39089 164.384 8.14938 164.236 7.93666C164.084 7.7232 163.879 7.56462 163.615 7.46128C163.345 7.35687 162.856 7.30413 162.134 7.30413H160.46V10.0477ZM158.986 15.1908H160.46V11.3163H161.326C161.843 11.3131 162.234 11.4168 162.502 11.6235C162.894 11.908 163.41 12.6183 164.048 13.7528L164.86 15.1908H166.645L165.535 13.403C165.003 12.553 164.553 11.951 164.184 11.5929C163.994 11.4043 163.732 11.2428 163.41 11.109C164.2 11.0483 164.834 10.7699 165.308 10.2745C165.788 9.78254 166.025 9.19741 166.025 8.53293C166.025 8.06149 165.883 7.61418 165.6 7.19545C165.311 6.77389 164.932 6.4811 164.449 6.31176C163.969 6.14242 163.197 6.05774 162.122 6.05774H158.986V15.1908ZM162.709 3.40532C161.517 3.40532 160.356 3.71387 159.228 4.32451C158.102 4.93658 157.221 5.81164 156.583 6.94967C155.947 8.08736 155.629 9.27131 155.629 10.5012C155.629 11.7272 155.944 12.8996 156.569 14.0215C157.193 15.1445 158.067 16.0206 159.19 16.6467C160.314 17.2731 161.486 17.5892 162.709 17.5892C163.929 17.5892 165.101 17.2731 166.224 16.6467C167.348 16.0206 168.221 15.1445 168.843 14.0215C169.464 12.8996 169.774 11.7272 169.774 10.5012C169.774 9.27131 169.456 8.08736 168.823 6.94967C168.191 5.81164 167.31 4.93658 166.178 4.32451C165.047 3.71387 163.889 3.40532 162.709 3.40532ZM162.709 2C164.131 2 165.518 2.36523 166.876 3.09893C168.229 3.82904 169.287 4.87881 170.043 6.23822C170.799 7.60303 171.177 9.02521 171.177 10.5012C171.177 11.9664 170.804 13.3761 170.057 14.7243C169.314 16.0777 168.272 17.1278 166.926 17.8722C165.581 18.6232 164.174 18.9956 162.709 18.9956C161.241 18.9956 159.834 18.6232 158.489 17.8722C157.143 17.1278 156.097 16.0777 155.35 14.7243C154.601 13.3761 154.227 11.9664 154.227 10.5012C154.227 9.02521 154.606 7.60303 155.365 6.23822C156.128 4.87881 157.186 3.82904 158.539 3.09893C159.895 2.36523 161.283 2 162.709 2ZM140.838 6.04737H149.991V39.0708H140.838V6.04737ZM137.618 39.0708H129.07V35.2122C127.796 36.8037 126.517 37.9332 125.228 38.6091C123.932 39.2868 122.346 39.6234 120.46 39.6234C117.946 39.6234 115.982 38.871 114.549 37.3563C113.123 35.8494 112.411 33.5199 112.411 30.3774V15.1341H121.61V28.3237C121.61 29.8231 121.886 30.8915 122.437 31.5308C122.99 32.1605 123.765 32.4755 124.761 32.4755C125.842 32.4755 126.733 32.0532 127.428 31.2141C128.119 30.3691 128.464 28.8547 128.464 26.6719V15.1341H137.618V39.0708ZM93.3223 15.1337H101.892V19.0386C102.721 17.3402 103.572 16.1709 104.446 15.5331C105.328 14.8958 106.408 14.5809 107.695 14.5809C109.054 14.5809 110.532 15.0027 112.135 15.8477L109.299 22.3587C108.219 21.9052 107.359 21.6832 106.731 21.6832C105.535 21.6832 104.6 22.1815 103.94 23.1738C102.996 24.5738 102.522 27.194 102.522 31.0303V39.0708H93.3223V15.1337ZM81.5006 27.6787C80.2432 28.1326 78.932 28.5318 77.5598 28.8852C75.7049 29.3854 74.5238 29.8776 74.034 30.362C73.5208 30.8617 73.2672 31.4303 73.2672 32.0679C73.2672 32.7976 73.5208 33.3972 74.0187 33.8589C74.5238 34.3196 75.2608 34.551 76.2341 34.551C77.2538 34.551 78.2037 34.297 79.0861 33.7965C79.9597 33.2985 80.5812 32.6911 80.9489 31.9674C81.3174 31.2452 81.5006 30.3074 81.5006 29.1535V27.6787ZM73.5884 22.8822L64.8499 21.9604C65.1794 20.4213 65.6545 19.2151 66.2757 18.3397C66.8959 17.4542 67.7851 16.6937 68.958 16.0486C69.7949 15.5786 70.9432 15.2173 72.4077 14.9651C73.8726 14.7111 75.46 14.5801 77.1695 14.5801C79.906 14.5801 82.0988 14.7333 83.7617 15.0415C85.4174 15.3486 86.8057 15.9941 87.9104 16.9699C88.6925 17.648 89.3045 18.6077 89.7507 19.8444C90.2014 21.0829 90.4245 22.2669 90.4245 23.3967V33.9741C90.4245 35.1039 90.4928 35.9875 90.6382 36.6265C90.777 37.2645 91.0925 38.0792 91.5678 39.0712H83.0037C82.6591 38.4563 82.436 37.9945 82.3292 37.6712C82.2296 37.3491 82.1228 36.8483 82.0145 36.1647C80.8188 37.3186 79.6298 38.1398 78.4414 38.6335C76.8242 39.2937 74.9461 39.6241 72.8064 39.6241C69.962 39.6241 67.8011 38.9632 66.3287 37.6328C64.8499 36.3097 64.1134 34.6741 64.1134 32.736C64.1134 30.9145 64.6419 29.4155 65.709 28.2401C66.7731 27.0637 68.7365 26.1862 71.595 25.6189C75.0224 24.9276 77.2458 24.4432 78.2655 24.1587C79.286 23.881 80.366 23.5197 81.5006 23.0662C81.5006 21.9365 81.2709 21.1518 80.8028 20.6998C80.342 20.2455 79.5309 20.0216 78.3644 20.0216C76.87 20.0216 75.7514 20.2602 74.9992 20.7442C74.4177 21.1292 73.9489 21.8371 73.5884 22.8822ZM36.0085 6.04737H52.9376C56.6246 6.04737 59.3848 6.92385 61.2237 8.68327C63.0564 10.4442 63.9757 12.9513 63.9757 16.2029C63.9757 19.5391 62.972 22.1517 60.97 24.0271C58.9705 25.9117 55.9108 26.8488 51.8023 26.8488H46.2204V39.0708H36.0085V6.04737Z" fill="white"/>
<path d="M386 41.29H377.893V33H372.154V41.29H364V46.71H372.154V55H377.893V46.71H386V41.29Z" fill="white"/>
<path d="M409 41.29H400.892V33H395.153V41.29H387V46.71H395.153V55H400.892V46.71H409V41.29Z" fill="white"/>
<path fill-rule="evenodd" clip-rule="evenodd" d="M368.653 40.4776C366.314 28.8 355.976 20 343.575 20C329.451 20 318 31.4169 318 45.5C318 59.5831 329.451 71 343.575 71C356.762 71 367.616 61.0491 369 48.2684H362.847V40.4776H368.653ZM361.288 59.4546H351.356L349.768 55.2944H338.929L337.343 59.4544H337.341V59.4546H327.409L339.382 28.3881H339.383V28.3878H349.315L361.288 59.4544V59.4546ZM344.371 41.2768L347.274 48.8274H341.424L344.371 41.2768Z" fill="white"/>
<path d="M208 44.5782H214.955V31.6388L224.562 44.5782H231.517V20.4219H224.562V33.3616L214.955 20.4219H208V44.5782ZM252.633 44.5782H260.484L251.02 20.4219H243.169L233.704 44.5782H241.556L242.81 41.3435H251.378L252.633 44.5782ZM244.782 36.3151L247.112 30.4429L249.407 36.3151H244.782ZM279.485 44.5782H287.335L277.872 20.4219H270.02L260.556 44.5782H268.407L269.661 41.3435H278.229L279.485 44.5782ZM271.633 36.3151L273.964 30.4429L276.258 36.3151H271.633ZM301.998 45C305.941 45 309.526 43.3476 312 40.7105L306.909 36.3502C305.726 37.8272 303.97 38.8116 301.998 38.8116C298.628 38.8116 295.76 35.9282 295.76 32.4824C295.76 29.0718 298.628 26.1884 301.998 26.1884C303.934 26.1884 305.726 27.1732 306.873 28.6499L312 24.2544C309.526 21.6528 305.941 20 301.998 20C294.72 20 288.59 25.6965 288.59 32.4824C288.59 39.2689 294.72 45 301.998 45Z" fill="white"/>
<path d="M218.424 62.1395H224.394V66.9836C222.849 68.1348 220.606 68.8734 218.667 68.8734C214.182 68.8734 210.394 65.0338 210.394 60.4855C210.394 55.9665 214.182 52.1266 218.667 52.1266C220.939 52.1266 223.637 53.1309 225.151 54.6964L226.758 53.1017C224.818 51.1819 221.546 50 218.667 50C212.91 50 208 54.7852 208 60.4855C208 66.1858 212.91 71 218.667 71C221.546 71 224.818 69.7891 226.758 67.8987V59.9536H218.424V62.1395ZM247.516 56.8527C247.516 53.0424 244.151 50.3549 239.848 50.3549H231.394V70.6457H233.758V63.3507H239.272L244.545 70.6457H247.243L241.848 63.1438C245.151 62.4645 247.516 60.0428 247.516 56.8527ZM233.758 52.5402H239.424C242.819 52.5402 245.121 54.1356 245.121 56.8527C245.121 59.5701 242.819 61.1648 239.424 61.1648H233.758V52.5402ZM268.03 70.6457H270.606L261.424 50.3549H258.848L249.666 70.6457H252.242L254.333 66.0385H265.939L268.03 70.6457ZM255.303 63.8526L260.151 53.1902L264.969 63.8526H255.303ZM274.424 70.6457H281.454C288.061 70.6457 292.727 66.4223 292.727 60.4855C292.727 54.549 288.061 50.3549 281.454 50.3549H274.424V70.6457ZM276.788 68.5483V52.4517H281.454C286.666 52.4517 290.334 55.7895 290.334 60.4855C290.334 65.2112 286.666 68.5483 281.454 68.5483H276.788ZM312 52.5402V50.3549H297.06V70.6457H312V68.4598H299.455V61.401H310.757V59.2155H299.455V52.5402H312Z" fill="white"/>
<path d="M198 0V91H197V0H198Z" fill="white"/>
</svg>
